<?xml version="1.0" standalone="no"?>
<svg xmlns="http://www.w3.org/2000/svg" width="500" height="500"><defs><clipPath id="clip-path-dot-color"><circle cx="26" cy="170" r="8" transform="rotate(0,26,170)"/><path d="M 18 194v 16h 8a 8 8, 0, 0, 0, 0 -16" transform="rotate(-90,26,202)"/><rect x="18" y="210" width="16" height="16" transform="rotate(0,26,218)"/><path d="M 18 226v 16h 16v -8a 8 8, 0, 0, 0, -8 -8" transform="rotate(180,26,234)"/><circle cx="26" cy="282" r="8" transform="rotate(0,26,282)"/><path d="M 34 178v 16h 8a 8 8, 0, 0, 0, 0 -16" transform="rotate(180,42,186)"/><path d="M 34 226v 16h 16v -8a 8 8, 0, 0, 0, -8 -8" transform="rotate(0,42,234)"/><rect x="34" y="242" width="16" height="16" transform="rotate(0,42,250)"/><path d="M 34 258v 16h 16v -8a 8 8, 0, 0, 0, -8 -8" transform="rotate(180,42,266)"/><path d="M 34 290v 16h 8a 8 8, 0, 0, 0, 0 -16" transform="rotate(180,42,298)"/><path d="M 34 322v 16h 8a 8 8, 0, 0, 0, 0 -16" transform="rotate(-90,42,330)"/><path d="M 34 338v 16h 16v -8a 8 8, 0, 0, 0, -8 -8" transform="rotate(180,42,346)"/><circle cx="58" cy="154" r="8" transform="rotate(0,58,154)"/><rect x="50" y="178" width="16" height="16" transform="rotate(0,58,186)"/><path d="M 50 194v 16h 16v -8a 8 8, 0, 0, 0, -8 -8" transform="rotate(180,58,202)"/><rect x="50" y="242" width="16" height="16" transform="rotate(0,58,250)"/><rect x="50" y="258" width="16" height="16" transform="rotate(0,58,266)"/><rect x="50" y="274" width="16" height="16" transform="rotate(0,58,282)"/><rect x="50" y="290" width="16" height="16" transform="rotate(0,58,298)"/><path d="M 50 306v 16h 8a 8 8, 0, 0, 0, 0 -16" transform="rotate(90,58,314)"/><rect x="50" y="338" width="16" height="16" transform="rotate(0,58,346)"/><path d="M 66 162v 16h 8a 8 8, 0, 0, 0, 0 -16" transform="rotate(-90,74,170)"/><rect x="66" y="178" width="16" height="16" transform="rotate(0,74,186)"/><rect x="66" y="194" width="16" height="16" transform="rotate(0,74,202)"/><rect x="66" y="210" width="16" height="16" transform="rotate(0,74,218)"/><rect x="66" y="226" width="16" height="16" transform="rotate(0,74,234)"/><rect x="66" y="242" width="16" height="16" transform="rotate(0,74,250)"/><rect x="66" y="258" width="16" height="16" transform="rotate(0,74,266)"/><path d="M 66 274v 16h 16v -8a 8 8, 0, 0, 0, -8 -8" transform="rotate(90,74,282)"/><path d="M 66 338v 16h 8a 8 8, 0, 0, 0, 0 -16" transform="rotate(0,74,346)"/><path d="M 82 146v 16h 8a 8 8, 0, 0, 0, 0 -16" transform="rotate(180,90,154)"/><path d="M 82 178v 16h 16v -8a 8 8, 0, 0, 0, -8 -8" transform="rotate(0,90,186)"/><rect x="82" y="194" width="16" height="16" transform="rotate(0,90,202)"/><rect x="82" y="210" width="16" height="16" transform="rotate(0,90,218)"/><path d="M 82 226v 16h 16v -8a 8 8, 0, 0, 0, -8 -8" transform="rotate(90,90,234)"/><path d="M 82 258v 16h 8a 8 8, 0, 0, 0, 0 -16" transform="rotate(0,90,266)"/><circle cx="90" cy="314" r="8" transform="rotate(0,90,314)"/><rect x="98" y="146" width="16" height="16" transform="rotate(0,106,154)"/><path d="M 98 162v 16h 8a 8 8, 0, 0, 0, 0 -16" transform="rotate(90,106,170)"/><path d="M 98 194v 16h 16v -8a 8 8, 0, 0, 0, -8 -8" transform="rotate(0,106,202)"/><rect x="98" y="210" width="16" height="16" transform="rotate(0,106,218)"/><path d="M 98 274v 16h 8a 8 8, 0, 0, 0, 0 -16" transform="rotate(180,106,282)"/><circle cx="106" cy="330" r="8" transform="rotate(0,106,330)"/><path d="M 114 146v 16h 8a 8 8, 0, 0, 0, 0 -16" transform="rotate(0,122,154)"/><path d="M 114 178v 16h 8a 8 8, 0, 0, 0, 0 -16" transform="rotate(180,122,186)"/><path d="M 114 210v 16h 8a 8 8, 0, 0, 0, 0 -16" transform="rotate(0,122,218)"/><circle cx="122" cy="250" r="8" transform="rotate(0,122,250)"/><path d="M 114 274v 16h 8a 8 8, 0, 0, 0, 0 -16" transform="rotate(0,122,282)"/><path d="M 114 306v 16h 8a 8 8, 0, 0, 0, 0 -16" transform="rotate(180,122,314)"/><path d="M 114 338v 16h 8a 8 8, 0, 0, 0, 0 -16" transform="rotate(180,122,346)"/><path d="M 130 162v 16h 16v -8a 8 8, 0, 0, 0, -8 -8" transform="rotate(-90,138,170)"/><rect x="130" y="178" width="16" height="16" transform="rotate(0,138,186)"/><path d="M 130 258v 16h 8a 8 8, 0, 0, 0, 0 -16" transform="rotate(180,138,266)"/><path d="M 130 290v 16h 16v -8a 8 8, 0, 0, 0, -8 -8" transform="rotate(-90,138,298)"/><rect x="130" y="306" width="16" height="16" transform="rotate(0,138,314)"/><rect x="130" y="322" width="16" height="16" transform="rotate(0,138,330)"/><rect x="130" y="338" width="16" height="16" transform="rotate(0,138,346)"/><circle cx="154" cy="42" r="8" transform="rotate(0,154,42)"/><path d="M 146 82v 16h 8a 8 8, 0, 0, 0, 0 -16" transform="rotate(180,154,90)"/><circle cx="154" cy="122" r="8" transform="rotate(0,154,122)"/><path d="M 146 146v 16h 8a 8 8, 0, 0, 0, 0 -16" transform="rotate(-90,154,154)"/><rect x="146" y="162" width="16" height="16" transform="rotate(0,154,170)"/><path d="M 146 178v 16h 16v -8a 8 8, 0, 0, 0, -8 -8" transform="rotate(90,154,186)"/><path d="M 146 226v 16h 8a 8 8, 0, 0, 0, 0 -16" transform="rotate(180,154,234)"/><path d="M 146 258v 16h 16v -8a 8 8, 0, 0, 0, -8 -8" transform="rotate(0,154,266)"/><rect x="146" y="274" width="16" height="16" transform="rotate(0,154,282)"/><rect x="146" y="290" width="16" height="16" transform="rotate(0,154,298)"/><rect x="146" y="306" width="16" height="16" transform="rotate(0,154,314)"/><rect x="146" y="322" width="16" height="16" transform="rotate(0,154,330)"/><rect x="146" y="338" width="16" height="16" transform="rotate(0,154,346)"/><path d="M 146 354v 16h 16v -8a 8 8, 0, 0, 0, -8 -8" transform="rotate(180,154,362)"/><path d="M 146 386v 16h 16v -8a 8 8, 0, 0, 0, -8 -8" transform="rotate(-90,154,394)"/><path d="M 146 402v 16h 16v -8a 8 8, 0, 0, 0, -8 -8" transform="rotate(180,154,410)"/><path d="M 146 434v 16h 8a 8 8, 0, 0, 0, 0 -16" transform="rotate(180,154,442)"/><path d="M 162 66v 16h 16v -8a 8 8, 0, 0, 0, -8 -8" transform="rotate(-90,170,74)"/><rect x="162" y="82" width="16" height="16" transform="rotate(0,170,90)"/><path d="M 162 162v 16h 8a 8 8, 0, 0, 0, 0 -16" transform="rotate(0,170,170)"/><circle cx="170" cy="202" r="8" transform="rotate(0,170,202)"/><rect x="162" y="226" width="16" height="16" transform="rotate(0,170,234)"/><path d="M 162 242v 16h 8a 8 8, 0, 0, 0, 0 -16" transform="rotate(90,170,250)"/><path d="M 162 290v 16h 16v -8a 8 8, 0, 0, 0, -8 -8" transform="rotate(0,170,298)"/><rect x="162" y="306" width="16" height="16" transform="rotate(0,170,314)"/><rect x="162" y="354" width="16" height="16" transform="rotate(0,170,362)"/><rect x="162" y="370" width="16" height="16" transform="rotate(0,170,378)"/><rect x="162" y="386" width="16" height="16" transform="rotate(0,170,394)"/><rect x="162" y="402" width="16" height="16" transform="rotate(0,170,410)"/><path d="M 162 434v 16h 16v -8a 8 8, 0, 0, 0, -8 -8" transform="rotate(0,170,442)"/><rect x="162" y="450" width="16" height="16" transform="rotate(0,170,458)"/><path d="M 162 466v 16h 16v -8a 8 8, 0, 0, 0, -8 -8" transform="rotate(180,170,474)"/><path d="M 178 66v 16h 16v -8a 8 8, 0, 0, 0, -8 -8" transform="rotate(0,186,74)"/><rect x="178" y="82" width="16" height="16" transform="rotate(0,186,90)"/><rect x="178" y="98" width="16" height="16" transform="rotate(0,186,106)"/><path d="M 178 114v 16h 8a 8 8, 0, 0, 0, 0 -16" transform="rotate(90,186,122)"/><circle cx="186" cy="154" r="8" transform="rotate(0,186,154)"/><path d="M 178 210v 16h 8a 8 8, 0, 0, 0, 0 -16" transform="rotate(-90,186,218)"/><rect x="178" y="226" width="16" height="16" transform="rotate(0,186,234)"/><circle cx="186" cy="282" r="8" transform="rotate(0,186,282)"/><path d="M 178 306v 16h 8a 8 8, 0, 0, 0, 0 -16" transform="rotate(0,186,314)"/><path d="M 178 338v 16h 16v -8a 8 8, 0, 0, 0, -8 -8" transform="rotate(-90,186,346)"/><rect x="178" y="354" width="16" height="16" transform="rotate(0,186,362)"/><path d="M 178 386v 16h 16v -8a 8 8, 0, 0, 0, -8 -8" transform="rotate(0,186,394)"/><rect x="178" y="402" width="16" height="16" transform="rotate(0,186,410)"/><rect x="178" y="466" width="16" height="16" transform="rotate(0,186,474)"/><path d="M 194 18v 16h 16v -8a 8 8, 0, 0, 0, -8 -8" transform="rotate(-90,202,26)"/><rect x="194" y="34" width="16" height="16" transform="rotate(0,202,42)"/><path d="M 194 50v 16h 8a 8 8, 0, 0, 0, 0 -16" transform="rotate(90,202,58)"/><rect x="194" y="98" width="16" height="16" transform="rotate(0,202,106)"/><circle cx="202" cy="138" r="8" transform="rotate(0,202,138)"/><path d="M 194 162v 16h 8a 8 8, 0, 0, 0, 0 -16" transform="rotate(-90,202,170)"/><path d="M 194 178v 16h 16v -8a 8 8, 0, 0, 0, -8 -8" transform="rotate(180,202,186)"/><path d="M 194 226v 16h 16v -8a 8 8, 0, 0, 0, -8 -8" transform="rotate(0,202,234)"/><path d="M 194 242v 16h 8a 8 8, 0, 0, 0, 0 -16" transform="rotate(90,202,250)"/><path d="M 194 290v 16h 8a 8 8, 0, 0, 0, 0 -16" transform="rotate(180,202,298)"/><path d="M 194 338v 16h 16v -8a 8 8, 0, 0, 0, -8 -8" transform="rotate(0,202,346)"/><path d="M 194 354v 16h 16v -8a 8 8, 0, 0, 0, -8 -8" transform="rotate(90,202,362)"/><path d="M 194 402v 16h 16v -8a 8 8, 0, 0, 0, -8 -8" transform="rotate(0,202,410)"/><path d="M 194 418v 16h 16v -8a 8 8, 0, 0, 0, -8 -8" transform="rotate(180,202,426)"/><path d="M 194 450v 16h 8a 8 8, 0, 0, 0, 0 -16" transform="rotate(-90,202,458)"/><rect x="194" y="466" width="16" height="16" transform="rotate(0,202,474)"/><rect x="210" y="18" width="16" height="16" transform="rotate(0,218,26)"/><rect x="210" y="34" width="16" height="16" transform="rotate(0,218,42)"/><rect x="210" y="98" width="16" height="16" transform="rotate(0,218,106)"/><path d="M 210 114v 16h 8a 8 8, 0, 0, 0, 0 -16" transform="rotate(90,218,122)"/><circle cx="218" cy="154" r="8" transform="rotate(0,218,154)"/><path d="M 210 178v 16h 16v -8a 8 8, 0, 0, 0, -8 -8" transform="rotate(0,218,186)"/><path d="M 210 194v 16h 16v -8a 8 8, 0, 0, 0, -8 -8" transform="rotate(180,218,202)"/><path d="M 210 258v 16h 16v -8a 8 8, 0, 0, 0, -8 -8" transform="rotate(-90,218,266)"/><rect x="210" y="274" width="16" height="16" transform="rotate(0,218,282)"/><rect x="210" y="290" width="16" height="16" transform="rotate(0,218,298)"/><circle cx="218" cy="330" r="8" transform="rotate(0,218,330)"/><circle cx="218" cy="394" r="8" transform="rotate(0,218,394)"/><path d="M 210 418v 16h 8a 8 8, 0, 0, 0, 0 -16" transform="rotate(0,218,426)"/><rect x="210" y="466" width="16" height="16" transform="rotate(0,218,474)"/><rect x="226" y="18" width="16" height="16" transform="rotate(0,234,26)"/><rect x="226" y="34" width="16" height="16" transform="rotate(0,234,42)"/><path d="M 226 82v 16h 16v -8a 8 8, 0, 0, 0, -8 -8" transform="rotate(-90,234,90)"/><path d="M 226 98v 16h 16v -8a 8 8, 0, 0, 0, -8 -8" transform="rotate(90,234,106)"/><circle cx="234" cy="138" r="8" transform="rotate(0,234,138)"/><circle cx="234" cy="170" r="8" transform="rotate(0,234,170)"/><rect x="226" y="194" width="16" height="16" transform="rotate(0,234,202)"/><path d="M 226 210v 16h 8a 8 8, 0, 0, 0, 0 -16" transform="rotate(90,234,218)"/><path d="M 226 258v 16h 8a 8 8, 0, 0, 0, 0 -16" transform="rotate(0,234,266)"/><path d="M 226 290v 16h 8a 8 8, 0, 0, 0, 0 -16" transform="rotate(0,234,298)"/><path d="M 226 370v 16h 8a 8 8, 0, 0, 0, 0 -16" transform="rotate(180,234,378)"/><path d="M 226 402v 16h 8a 8 8, 0, 0, 0, 0 -16" transform="rotate(180,234,410)"/><path d="M 226 434v 16h 8a 8 8, 0, 0, 0, 0 -16" transform="rotate(-90,234,442)"/><rect x="226" y="450" width="16" height="16" transform="rotate(0,234,458)"/><rect x="226" y="466" width="16" height="16" transform="rotate(0,234,474)"/><path d="M 242 18v 16h 16v -8a 8 8, 0, 0, 0, -8 -8" transform="rotate(0,250,26)"/><rect x="242" y="34" width="16" height="16" transform="rotate(0,250,42)"/><path d="M 242 50v 16h 8a 8 8, 0, 0, 0, 0 -16" transform="rotate(90,250,58)"/><path d="M 242 82v 16h 8a 8 8, 0, 0, 0, 0 -16" transform="rotate(0,250,90)"/><circle cx="250" cy="122" r="8" transform="rotate(0,250,122)"/><path d="M 242 146v 16h 8a 8 8, 0, 0, 0, 0 -16" transform="rotate(180,250,154)"/><rect x="242" y="194" width="16" height="16" transform="rotate(0,250,202)"/><path d="M 242 226v 16h 8a 8 8, 0, 0, 0, 0 -16" transform="rotate(180,250,234)"/><circle cx="250" cy="314" r="8" transform="rotate(0,250,314)"/><path d="M 242 338v 16h 16v -8a 8 8, 0, 0, 0, -8 -8" transform="rotate(-90,250,346)"/><rect x="242" y="354" width="16" height="16" transform="rotate(0,250,362)"/><path d="M 242 370v 16h 16v -8a 8 8, 0, 0, 0, -8 -8" transform="rotate(90,250,378)"/><path d="M 242 402v 16h 8a 8 8, 0, 0, 0, 0 -16" transform="rotate(0,250,410)"/><rect x="242" y="466" width="16" height="16" transform="rotate(0,250,474)"/><circle cx="266" cy="106" r="8" transform="rotate(0,266,106)"/><rect x="258" y="146" width="16" height="16" transform="rotate(0,266,154)"/><rect x="258" y="194" width="16" height="16" transform="rotate(0,266,202)"/><rect x="258" y="210" width="16" height="16" transform="rotate(0,266,218)"/><path d="M 258 226v 16h 16v -8a 8 8, 0, 0, 0, -8 -8" transform="rotate(90,266,234)"/><path d="M 258 274v 16h 8a 8 8, 0, 0, 0, 0 -16" transform="rotate(-90,266,282)"/><path d="M 258 290v 16h 16v -8a 8 8, 0, 0, 0, -8 -8" transform="rotate(180,266,298)"/><path d="M 258 322v 16h 16v -8a 8 8, 0, 0, 0, -8 -8" transform="rotate(-90,266,330)"/><rect x="258" y="338" width="16" height="16" transform="rotate(0,266,346)"/><circle cx="266" cy="394" r="8" transform="rotate(0,266,394)"/><circle cx="266" cy="426" r="8" transform="rotate(0,266,426)"/><rect x="258" y="466" width="16" height="16" transform="rotate(0,266,474)"/><path d="M 274 18v 16h 16v -8a 8 8, 0, 0, 0, -8 -8" transform="rotate(-90,282,26)"/><rect x="274" y="34" width="16" height="16" transform="rotate(0,282,42)"/><path d="M 274 50v 16h 8a 8 8, 0, 0, 0, 0 -16" transform="rotate(90,282,58)"/><circle cx="282" cy="122" r="8" transform="rotate(0,282,122)"/><rect x="274" y="146" width="16" height="16" transform="rotate(0,282,154)"/><rect x="274" y="194" width="16" height="16" transform="rotate(0,282,202)"/><path d="M 274 210v 16h 16v -8a 8 8, 0, 0, 0, -8 -8" transform="rotate(90,282,218)"/><path d="M 274 290v 16h 8a 8 8, 0, 0, 0, 0 -16" transform="rotate(0,282,298)"/><path d="M 274 322v 16h 16v -8a 8 8, 0, 0, 0, -8 -8" transform="rotate(0,282,330)"/><rect x="274" y="338" width="16" height="16" transform="rotate(0,282,346)"/><path d="M 274 354v 16h 16v -8a 8 8, 0, 0, 0, -8 -8" transform="rotate(180,282,362)"/><rect x="274" y="466" width="16" height="16" transform="rotate(0,282,474)"/><path d="M 290 18v 16h 16v -8a 8 8, 0, 0, 0, -8 -8" transform="rotate(0,298,26)"/><path d="M 290 34v 16h 16v -8a 8 8, 0, 0, 0, -8 -8" transform="rotate(90,298,42)"/><path d="M 290 66v 16h 8a 8 8, 0, 0, 0, 0 -16" transform="rotate(180,298,74)"/><path d="M 290 146v 16h 8a 8 8, 0, 0, 0, 0 -16" transform="rotate(0,298,154)"/><path d="M 290 178v 16h 8a 8 8, 0, 0, 0, 0 -16" transform="rotate(-90,298,186)"/><rect x="290" y="194" width="16" height="16" transform="rotate(0,298,202)"/><path d="M 290 226v 16h 8a 8 8, 0, 0, 0, 0 -16" transform="rotate(180,298,234)"/><path d="M 290 274v 16h 8a 8 8, 0, 0, 0, 0 -16" transform="rotate(180,298,282)"/><circle cx="298" cy="314" r="8" transform="rotate(0,298,314)"/><path d="M 290 354v 16h 16v -8a 8 8, 0, 0, 0, -8 -8" transform="rotate(0,298,362)"/><rect x="290" y="370" width="16" height="16" transform="rotate(0,298,378)"/><rect x="290" y="386" width="16" height="16" transform="rotate(0,298,394)"/><rect x="290" y="402" width="16" height="16" transform="rotate(0,298,410)"/><rect x="290" y="418" width="16" height="16" transform="rotate(0,298,426)"/><path d="M 290 434v 16h 8a 8 8, 0, 0, 0, 0 -16" transform="rotate(90,298,442)"/><rect x="290" y="466" width="16" height="16" transform="rotate(0,298,474)"/><path d="M 306 66v 16h 8a 8 8, 0, 0, 0, 0 -16" transform="rotate(0,314,74)"/><path d="M 306 98v 16h 8a 8 8, 0, 0, 0, 0 -16" transform="rotate(-90,314,106)"/><path d="M 306 114v 16h 8a 8 8, 0, 0, 0, 0 -16" transform="rotate(90,314,122)"/><path d="M 306 194v 16h 16v -8a 8 8, 0, 0, 0, -8 -8" transform="rotate(0,314,202)"/><rect x="306" y="210" width="16" height="16" transform="rotate(0,314,218)"/><path d="M 306 226v 16h 16v -8a 8 8, 0, 0, 0, -8 -8" transform="rotate(90,314,234)"/><path d="M 306 274v 16h 8a 8 8, 0, 0, 0, 0 -16" transform="rotate(0,314,282)"/><rect x="306" y="418" width="16" height="16" transform="rotate(0,314,426)"/><path d="M 306 466v 16h 8a 8 8, 0, 0, 0, 0 -16" transform="rotate(0,314,474)"/><circle cx="330" cy="58" r="8" transform="rotate(0,330,58)"/><path d="M 322 82v 16h 8a 8 8, 0, 0, 0, 0 -16" transform="rotate(180,330,90)"/><path d="M 322 130v 16h 8a 8 8, 0, 0, 0, 0 -16" transform="rotate(180,330,138)"/><path d="M 322 162v 16h 16v -8a 8 8, 0, 0, 0, -8 -8" transform="rotate(-90,330,170)"/><path d="M 322 178v 16h 8a 8 8, 0, 0, 0, 0 -16" transform="rotate(90,330,186)"/><path d="M 322 290v 16h 16v -8a 8 8, 0, 0, 0, -8 -8" transform="rotate(-90,330,298)"/><rect x="322" y="306" width="16" height="16" transform="rotate(0,330,314)"/><rect x="322" y="322" width="16" height="16" transform="rotate(0,330,330)"/><path d="M 322 338v 16h 16v -8a 8 8, 0, 0, 0, -8 -8" transform="rotate(180,330,346)"/><rect x="322" y="418" width="16" height="16" transform="rotate(0,330,426)"/><path d="M 338 18v 16h 8a 8 8, 0, 0, 0, 0 -16" transform="rotate(-90,346,26)"/><path d="M 338 34v 16h 8a 8 8, 0, 0, 0, 0 -16" transform="rotate(90,346,42)"/><path d="M 338 82v 16h 16v -8a 8 8, 0, 0, 0, -8 -8" transform="rotate(0,346,90)"/><rect x="338" y="98" width="16" height="16" transform="rotate(0,346,106)"/><rect x="338" y="114" width="16" height="16" transform="rotate(0,346,122)"/><path d="M 338 130v 16h 16v -8a 8 8, 0, 0, 0, -8 -8" transform="rotate(90,346,138)"/><rect x="338" y="162" width="16" height="16" transform="rotate(0,346,170)"/><circle cx="346" cy="218" r="8" transform="rotate(0,346,218)"/><path d="M 338 242v 16h 16v -8a 8 8, 0, 0, 0, -8 -8" transform="rotate(-90,346,250)"/><path d="M 338 258v 16h 16v -8a 8 8, 0, 0, 0, -8 -8" transform="rotate(180,346,266)"/><path d="M 338 290v 16h 8a 8 8, 0, 0, 0, 0 -16" transform="rotate(0,346,298)"/><rect x="338" y="338" width="16" height="16" transform="rotate(0,346,346)"/><rect x="338" y="354" width="16" height="16" transform="rotate(0,346,362)"/><rect x="338" y="370" width="16" height="16" transform="rotate(0,346,378)"/><rect x="338" y="386" width="16" height="16" transform="rotate(0,346,394)"/><rect x="338" y="402" width="16" height="16" transform="rotate(0,346,410)"/><path d="M 338 418v 16h 16v -8a 8 8, 0, 0, 0, -8 -8" transform="rotate(90,346,426)"/><path d="M 338 450v 16h 16v -8a 8 8, 0, 0, 0, -8 -8" transform="rotate(-90,346,458)"/><path d="M 338 466v 16h 16v -8a 8 8, 0, 0, 0, -8 -8" transform="rotate(180,346,474)"/><path d="M 354 146v 16h 8a 8 8, 0, 0, 0, 0 -16" transform="rotate(-90,362,154)"/><rect x="354" y="162" width="16" height="16" transform="rotate(0,362,170)"/><path d="M 354 178v 16h 8a 8 8, 0, 0, 0, 0 -16" transform="rotate(90,362,186)"/><path d="M 354 242v 16h 16v -8a 8 8, 0, 0, 0, -8 -8" transform="rotate(0,362,250)"/><rect x="354" y="258" width="16" height="16" transform="rotate(0,362,266)"/><path d="M 354 274v 16h 8a 8 8, 0, 0, 0, 0 -16" transform="rotate(90,362,282)"/><rect x="354" y="338" width="16" height="16" transform="rotate(0,362,346)"/><rect x="354" y="402" width="16" height="16" transform="rotate(0,362,410)"/><path d="M 354 434v 16h 8a 8 8, 0, 0, 0, 0 -16" transform="rotate(-90,362,442)"/><rect x="354" y="450" width="16" height="16" transform="rotate(0,362,458)"/><rect x="354" y="466" width="16" height="16" transform="rotate(0,362,474)"/><path d="M 370 194v 16h 16v -8a 8 8, 0, 0, 0, -8 -8" transform="rotate(-90,378,202)"/><rect x="370" y="210" width="16" height="16" transform="rotate(0,378,218)"/><path d="M 370 226v 16h 8a 8 8, 0, 0, 0, 0 -16" transform="rotate(90,378,234)"/><rect x="370" y="258" width="16" height="16" transform="rotate(0,378,266)"/><path d="M 370 290v 16h 8a 8 8, 0, 0, 0, 0 -16" transform="rotate(180,378,298)"/><path d="M 370 322v 16h 16v -8a 8 8, 0, 0, 0, -8 -8" transform="rotate(-90,378,330)"/><rect x="370" y="338" width="16" height="16" transform="rotate(0,378,346)"/><circle cx="378" cy="378" r="8" transform="rotate(0,378,378)"/><rect x="370" y="402" width="16" height="16" transform="rotate(0,378,410)"/><rect x="370" y="466" width="16" height="16" transform="rotate(0,378,474)"/><path d="M 386 162v 16h 8a 8 8, 0, 0, 0, 0 -16" transform="rotate(180,394,170)"/><path d="M 386 194v 16h 16v -8a 8 8, 0, 0, 0, -8 -8" transform="rotate(0,394,202)"/><path d="M 386 210v 16h 16v -8a 8 8, 0, 0, 0, -8 -8" transform="rotate(90,394,218)"/><path d="M 386 258v 16h 8a 8 8, 0, 0, 0, 0 -16" transform="rotate(0,394,266)"/><rect x="386" y="290" width="16" height="16" transform="rotate(0,394,298)"/><rect x="386" y="306" width="16" height="16" transform="rotate(0,394,314)"/><rect x="386" y="322" width="16" height="16" transform="rotate(0,394,330)"/><rect x="386" y="338" width="16" height="16" transform="rotate(0,394,346)"/><rect x="386" y="402" width="16" height="16" transform="rotate(0,394,410)"/><path d="M 386 418v 16h 8a 8 8, 0, 0, 0, 0 -16" transform="rotate(90,394,426)"/><path d="M 386 450v 16h 16v -8a 8 8, 0, 0, 0, -8 -8" transform="rotate(-90,394,458)"/><path d="M 386 466v 16h 16v -8a 8 8, 0, 0, 0, -8 -8" transform="rotate(90,394,474)"/><path d="M 402 146v 16h 8a 8 8, 0, 0, 0, 0 -16" transform="rotate(-90,410,154)"/><rect x="402" y="162" width="16" height="16" transform="rotate(0,410,170)"/><path d="M 402 178v 16h 8a 8 8, 0, 0, 0, 0 -16" transform="rotate(90,410,186)"/><path d="M 402 290v 16h 8a 8 8, 0, 0, 0, 0 -16" transform="rotate(0,410,298)"/><path d="M 402 322v 16h 16v -8a 8 8, 0, 0, 0, -8 -8" transform="rotate(0,410,330)"/><rect x="402" y="338" width="16" height="16" transform="rotate(0,410,346)"/><rect x="402" y="354" width="16" height="16" transform="rotate(0,410,362)"/><rect x="402" y="370" width="16" height="16" transform="rotate(0,410,378)"/><rect x="402" y="386" width="16" height="16" transform="rotate(0,410,394)"/><path d="M 402 402v 16h 16v -8a 8 8, 0, 0, 0, -8 -8" transform="rotate(90,410,410)"/><rect x="402" y="450" width="16" height="16" transform="rotate(0,410,458)"/><path d="M 418 162v 16h 8a 8 8, 0, 0, 0, 0 -16" transform="rotate(0,426,170)"/><circle cx="426" cy="234" r="8" transform="rotate(0,426,234)"/><path d="M 418 386v 16h 8a 8 8, 0, 0, 0, 0 -16" transform="rotate(0,426,394)"/><path d="M 418 434v 16h 16v -8a 8 8, 0, 0, 0, -8 -8" transform="rotate(-90,426,442)"/><rect x="418" y="450" width="16" height="16" transform="rotate(0,426,458)"/><path d="M 434 210v 16h 8a 8 8, 0, 0, 0, 0 -16" transform="rotate(180,442,218)"/><path d="M 434 242v 16h 16v -8a 8 8, 0, 0, 0, -8 -8" transform="rotate(-90,442,250)"/><path d="M 434 258v 16h 16v -8a 8 8, 0, 0, 0, -8 -8" transform="rotate(180,442,266)"/><path d="M 434 290v 16h 16v -8a 8 8, 0, 0, 0, -8 -8" transform="rotate(-90,442,298)"/><rect x="434" y="306" width="16" height="16" transform="rotate(0,442,314)"/><rect x="434" y="322" width="16" height="16" transform="rotate(0,442,330)"/><rect x="434" y="338" width="16" height="16" transform="rotate(0,442,346)"/><path d="M 434 354v 16h 8a 8 8, 0, 0, 0, 0 -16" transform="rotate(90,442,362)"/><path d="M 434 434v 16h 16v -8a 8 8, 0, 0, 0, -8 -8" transform="rotate(0,442,442)"/><rect x="434" y="450" width="16" height="16" transform="rotate(0,442,458)"/><path d="M 434 466v 16h 16v -8a 8 8, 0, 0, 0, -8 -8" transform="rotate(180,442,474)"/><path d="M 450 146v 16h 8a 8 8, 0, 0, 0, 0 -16" transform="rotate(-90,458,154)"/><path d="M 450 162v 16h 8a 8 8, 0, 0, 0, 0 -16" transform="rotate(90,458,170)"/><path d="M 450 210v 16h 16v -8a 8 8, 0, 0, 0, -8 -8" transform="rotate(0,458,218)"/><rect x="450" y="226" width="16" height="16" transform="rotate(0,458,234)"/><rect x="450" y="242" width="16" height="16" transform="rotate(0,458,250)"/><path d="M 450 258v 16h 16v -8a 8 8, 0, 0, 0, -8 -8" transform="rotate(90,458,266)"/><rect x="450" y="290" width="16" height="16" transform="rotate(0,458,298)"/><rect x="450" y="338" width="16" height="16" transform="rotate(0,458,346)"/><path d="M 450 370v 16h 16v -8a 8 8, 0, 0, 0, -8 -8" transform="rotate(-90,458,378)"/><path d="M 450 386v 16h 8a 8 8, 0, 0, 0, 0 -16" transform="rotate(90,458,394)"/><path d="M 450 418v 16h 8a 8 8, 0, 0, 0, 0 -16" transform="rotate(180,458,426)"/><rect x="450" y="450" width="16" height="16" transform="rotate(0,458,458)"/><path d="M 450 466v 16h 16v -8a 8 8, 0, 0, 0, -8 -8" transform="rotate(90,458,474)"/><circle cx="474" cy="202" r="8" transform="rotate(0,474,202)"/><path d="M 466 226v 16h 8a 8 8, 0, 0, 0, 0 -16" transform="rotate(0,474,234)"/><path d="M 466 274v 16h 8a 8 8, 0, 0, 0, 0 -16" transform="rotate(-90,474,282)"/><path d="M 466 290v 16h 16v -8a 8 8, 0, 0, 0, -8 -8" transform="rotate(90,474,298)"/><path d="M 466 322v 16h 8a 8 8, 0, 0, 0, 0 -16" transform="rotate(-90,474,330)"/><rect x="466" y="338" width="16" height="16" transform="rotate(0,474,346)"/><rect x="466" y="354" width="16" height="16" transform="rotate(0,474,362)"/><path d="M 466 370v 16h 16v -8a 8 8, 0, 0, 0, -8 -8" transform="rotate(90,474,378)"/><path d="M 466 402v 16h 8a 8 8, 0, 0, 0, 0 -16" transform="rotate(-90,474,410)"/><path d="M 466 418v 16h 16v -8a 8 8, 0, 0, 0, -8 -8" transform="rotate(90,474,426)"/><path d="M 466 450v 16h 8a 8 8, 0, 0, 0, 0 -16" transform="rotate(0,474,458)"/></clipPath><clipPath id="clip-path-corners-square-color-0-0"><path clip-rule="evenodd" d="M 74 18a 56 56 0 1 0 0.1 0zm 0 16a 40 40 0 1 1 -0.1 0Z" transform="rotate(0,74,74)"/></clipPath><clipPath id="clip-path-corners-dot-color-0-0"><circle cx="74" cy="74" r="24" transform="rotate(0,74,74)"/></clipPath><clipPath id="clip-path-corners-square-color-1-0"><path clip-rule="evenodd" d="M 426 18a 56 56 0 1 0 0.1 0zm 0 16a 40 40 0 1 1 -0.1 0Z" transform="rotate(90,426,74)"/></clipPath><clipPath id="clip-path-corners-dot-color-1-0"><circle cx="426" cy="74" r="24" transform="rotate(90,426,74)"/></clipPath><clipPath id="clip-path-corners-square-color-0-1"><path clip-rule="evenodd" d="M 74 370a 56 56 0 1 0 0.1 0zm 0 16a 40 40 0 1 1 -0.1 0Z" transform="rotate(-90,74,426)"/></clipPath><clipPath id="clip-path-corners-dot-color-0-1"><circle cx="74" cy="426" r="24" transform="rotate(-90,74,426)"/></clipPath></defs><rect x="0" y="0" height="500" width="500" clip-path="url('#clip-path-background-color')" fill="#fff"/><rect x="0" y="0" height="500" width="500" clip-path="url('#clip-path-dot-color')" fill="#000000"/><rect x="18" y="18" height="112" width="112" clip-path="url('#clip-path-corners-square-color-0-0')" fill="#000000"/><rect x="50" y="50" height="48" width="48" clip-path="url('#clip-path-corners-dot-color-0-0')" fill="#000000"/><rect x="370" y="18" height="112" width="112" clip-path="url('#clip-path-corners-square-color-1-0')" fill="#000000"/><rect x="402" y="50" height="48" width="48" clip-path="url('#clip-path-corners-dot-color-1-0')" fill="#000000"/><rect x="18" y="370" height="112" width="112" clip-path="url('#clip-path-corners-square-color-0-1')" fill="#000000"/><rect x="50" y="402" height="48" width="48" clip-path="url('#clip-path-corners-dot-color-0-1')" fill="#000000"/></svg>